<svg width="159" height="27" viewBox="0 0 159 27" fill="none" xmlns="http://www.w3.org/2000/svg">
<path d="M11.0351 26.9629C8.61073 26.9629 6.52075 26.6191 4.76516 25.9315C3.03744 25.2194 1.44905 24.1512 0 22.7269L4.26356 19.0066C5.21102 19.9643 6.25601 20.7133 7.39854 21.2535C8.56893 21.7692 9.92045 22.027 11.4531 22.027C12.8464 22.027 13.9193 21.806 14.6717 21.364C15.4519 20.922 15.8421 20.3081 15.8421 19.5223C15.8421 18.8101 15.5913 18.233 15.0897 17.791C14.5881 17.349 13.9193 16.9684 13.0833 16.6491C12.2752 16.3299 11.3695 16.0229 10.3663 15.7283C9.39099 15.4336 8.41566 15.1021 7.44034 14.7337C6.46501 14.3408 5.55935 13.862 4.72336 13.2972C3.91523 12.7078 3.26037 11.9834 2.75878 11.1239C2.25718 10.2399 2.00638 9.13482 2.00638 7.80876C2.00638 6.21258 2.43831 4.83741 3.30217 3.68325C4.1939 2.52909 5.42002 1.65733 6.98054 1.06797C8.54106 0.454053 10.3384 0.147096 12.3727 0.147096C14.4348 0.147096 16.3158 0.466331 18.0156 1.1048C19.7434 1.74328 21.1646 2.61504 22.2792 3.72008L18.0156 7.44041C17.1239 6.63004 16.2183 6.0284 15.2987 5.6355C14.4069 5.24259 13.3898 5.04614 12.2473 5.04614C11.1048 5.04614 10.1991 5.24259 9.53032 5.6355C8.86153 6.00385 8.52713 6.54409 8.52713 7.25623C8.52713 7.91926 8.77793 8.45951 9.27952 8.87697C9.78112 9.26988 10.436 9.61367 11.2441 9.90835C12.0801 10.203 12.9858 10.4977 13.9611 10.7924C14.9643 11.0871 15.9535 11.4309 16.9289 11.8238C17.9042 12.2167 18.7959 12.7201 19.604 13.334C20.44 13.9234 21.1088 14.6846 21.6104 15.6178C22.112 16.5264 22.3628 17.656 22.3628 19.0066C22.3628 21.4868 21.3596 23.439 19.3532 24.8633C17.3469 26.2631 14.5741 26.9629 11.0351 26.9629Z" fill="white"/>
<path d="M35.8674 26.9629C33.6659 26.9629 31.7013 26.57 29.9736 25.7842C28.2738 24.9738 26.9362 23.8565 25.9608 22.4322C24.9855 21.0079 24.4979 19.3995 24.4979 17.6068C24.4979 15.8142 24.9716 14.218 25.9191 12.8183C26.8944 11.394 28.2041 10.2767 29.8482 9.46633C31.4923 8.65596 33.3455 8.25078 35.4076 8.25078C37.414 8.25078 39.1835 8.63141 40.7161 9.39266C42.2488 10.1539 43.447 11.2099 44.3109 12.5605C45.2026 13.9111 45.6485 15.4581 45.6485 17.2017C45.6485 17.5209 45.6206 17.8647 45.5649 18.233C45.537 18.5768 45.4674 18.982 45.3559 19.4486L27.8418 19.4854V15.6178L42.6389 15.5809L39.8801 17.2017C39.8523 16.1703 39.6711 15.3231 39.3367 14.6601C39.0023 13.9725 38.5007 13.4568 37.832 13.113C37.191 12.7446 36.3968 12.5605 35.4494 12.5605C34.4462 12.5605 33.5684 12.7692 32.816 13.1867C32.0915 13.5796 31.5202 14.1444 31.1022 14.8811C30.7121 15.6178 30.517 16.5141 30.517 17.57C30.517 18.6259 30.726 19.5345 31.144 20.2958C31.5899 21.0325 32.2029 21.6096 32.9832 22.027C33.7913 22.4199 34.7388 22.6164 35.8256 22.6164C36.8288 22.6164 37.7344 22.4691 38.5425 22.1744C39.3507 21.8551 40.0613 21.3886 40.6743 20.7747L44.1855 23.8688C43.1823 24.9002 41.9701 25.6737 40.5489 26.1894C39.1277 26.7051 37.5672 26.9629 35.8674 26.9629Z" fill="white"/>
<path d="M48.7355 26.5577V8.65596H55.1308V26.5577H48.7355ZM55.1308 16.7228L52.4556 14.8811C52.9851 12.7938 53.8768 11.173 55.1308 10.0189C56.3848 8.86469 58.1264 8.28761 60.3558 8.28761C61.3311 8.28761 62.181 8.42267 62.9055 8.6928C63.6579 8.93836 64.3128 9.33127 64.8701 9.87152L61.0663 14.1075C60.7877 13.8374 60.4394 13.6287 60.0214 13.4813C59.6034 13.334 59.1296 13.2603 58.6002 13.2603C57.5412 13.2603 56.6913 13.555 56.0504 14.1444C55.4373 14.7092 55.1308 15.5687 55.1308 16.7228Z" fill="white"/>
<path d="M72.8059 26.5577L64.1951 8.65596H71.0921L76.944 23.5741H73.9344L79.7864 8.65596H86.5579L77.9472 26.5209L72.8059 26.5577Z" fill="white"/>
<path d="M88.8615 26.5577V8.65596H95.2568V26.5577H88.8615ZM92.0801 6.18802C91.0769 6.18802 90.2409 5.89334 89.5721 5.30398C88.9312 4.69007 88.6107 3.95337 88.6107 3.09389C88.6107 2.20985 88.9312 1.47315 89.5721 0.883794C90.2409 0.294435 91.0769 -0.000244141 92.0801 -0.000244141C93.0833 -0.000244141 93.9053 0.294435 94.5462 0.883794C95.1872 1.47315 95.5076 2.20985 95.5076 3.09389C95.5076 3.95337 95.1872 4.69007 94.5462 5.30398C93.9053 5.89334 93.0833 6.18802 92.0801 6.18802Z" fill="white"/>
<path d="M109.583 26.9629C107.493 26.9629 105.598 26.5577 103.899 25.7474C102.199 24.937 100.861 23.8197 99.8858 22.3954C98.9105 20.9711 98.4228 19.3749 98.4228 17.6068C98.4228 15.8142 98.9105 14.218 99.8858 12.8183C100.889 11.394 102.241 10.2767 103.94 9.46633C105.64 8.65596 107.549 8.25078 109.667 8.25078C111.255 8.25078 112.704 8.49634 114.014 8.98748C115.352 9.45405 116.536 10.1662 117.567 11.1239L113.471 14.7337C112.997 14.2671 112.44 13.9234 111.799 13.7023C111.186 13.4813 110.475 13.3708 109.667 13.3708C108.747 13.3708 107.925 13.555 107.201 13.9234C106.504 14.2671 105.947 14.7583 105.529 15.3968C105.139 16.0107 104.944 16.7351 104.944 17.57C104.944 18.4049 105.139 19.1416 105.529 19.7801C105.947 20.4186 106.518 20.922 107.243 21.2903C107.967 21.6587 108.775 21.8429 109.667 21.8429C110.503 21.8429 111.241 21.7201 111.882 21.4745C112.551 21.2044 113.122 20.836 113.596 20.3695L117.651 23.9793C116.592 24.9616 115.393 25.7105 114.056 26.2262C112.718 26.7174 111.227 26.9629 109.583 26.9629Z" fill="white"/>
<path d="M130.039 26.9629C127.838 26.9629 125.873 26.57 124.145 25.7842C122.445 24.9738 121.108 23.8565 120.133 22.4322C119.157 21.0079 118.67 19.3995 118.67 17.6068C118.67 15.8142 119.143 14.218 120.091 12.8183C121.066 11.394 122.376 10.2767 124.02 9.46633C125.664 8.65596 127.517 8.25078 129.579 8.25078C131.586 8.25078 133.355 8.63141 134.888 9.39266C136.42 10.1539 137.619 11.2099 138.483 12.5605C139.374 13.9111 139.82 15.4581 139.82 17.2017C139.82 17.5209 139.792 17.8647 139.737 18.233C139.709 18.5768 139.639 18.982 139.528 19.4486L122.014 19.4854V15.6178L136.811 15.5809L134.052 17.2017C134.024 16.1703 133.843 15.3231 133.508 14.6601C133.174 13.9725 132.672 13.4568 132.004 13.113C131.363 12.7446 130.568 12.5605 129.621 12.5605C128.618 12.5605 127.74 12.7692 126.988 13.1867C126.263 13.5796 125.692 14.1444 125.274 14.8811C124.884 15.6178 124.689 16.5141 124.689 17.57C124.689 18.6259 124.898 19.5345 125.316 20.2958C125.762 21.0325 126.375 21.6096 127.155 22.027C127.963 22.4199 128.91 22.6164 129.997 22.6164C131 22.6164 131.906 22.4691 132.714 22.1744C133.522 21.8551 134.233 21.3886 134.846 20.7747L138.357 23.8688C137.354 24.9002 136.142 25.6737 134.721 26.1894C133.299 26.7051 131.739 26.9629 130.039 26.9629Z" fill="white"/>
<path d="M150.306 26.9998C149.107 26.9998 147.923 26.8647 146.753 26.5946C145.61 26.3244 144.537 25.9438 143.534 25.4527C142.559 24.937 141.723 24.3476 141.026 23.6846L144.663 20.4431C145.332 21.0816 146.126 21.585 147.045 21.9534C147.965 22.2972 148.968 22.4691 150.055 22.4691C150.807 22.4691 151.379 22.3708 151.769 22.1744C152.187 21.9779 152.396 21.7078 152.396 21.364C152.396 20.922 152.145 20.5905 151.643 20.3695C151.17 20.1239 150.556 19.9152 149.804 19.7433C149.052 19.5468 148.257 19.3381 147.421 19.1171C146.585 18.8961 145.791 18.5891 145.039 18.1962C144.287 17.8033 143.673 17.2631 143.2 16.5755C142.726 15.8633 142.489 14.967 142.489 13.8865C142.489 12.7324 142.824 11.7378 143.492 10.9029C144.161 10.0434 145.109 9.3681 146.335 8.87697C147.561 8.38584 148.996 8.14027 150.64 8.14027C152.368 8.14027 153.956 8.4104 155.405 8.95064C156.882 9.46633 158.08 10.2399 159 11.2712L155.363 14.5127C154.722 13.8497 153.998 13.3831 153.19 13.113C152.41 12.8429 151.643 12.7078 150.891 12.7078C150.166 12.7078 149.623 12.806 149.261 13.0025C148.898 13.1744 148.717 13.4322 148.717 13.776C148.717 14.1444 148.954 14.439 149.428 14.6601C149.902 14.8811 150.515 15.0775 151.267 15.2494C152.019 15.4213 152.814 15.63 153.65 15.8756C154.486 16.1212 155.28 16.4527 156.032 16.8701C156.785 17.2876 157.398 17.8524 157.871 18.5646C158.345 19.2521 158.582 20.1607 158.582 21.2903C158.582 23.0339 157.83 24.4213 156.325 25.4527C154.848 26.4841 152.842 26.9998 150.306 26.9998Z" fill="white"/>
</svg>
